:SAMPLES-PER-SECOND 30
:FRAME-RANGE 1-2045
:FULLY-SPECIFIED
:DEGREES
1790
root  30.2238 41.1501 2.00509 -175.411 13.3972 175.844
RightUpLeg  -24.15 -14.8794 -6.1824
RightLeg  38.5347 1.49561 1.0114
RightFoot  13.1876 -3.84697 17.9892
RightToes  5.82063e-011 0 -3.6325e-017
Spine  2.07239 -7.62533 -20.212
Spine1  22.2752 -16.8662 20.3806
HEad  -40.6839 54.1139 -47.1451
LeftShoulder1  -0.0300873 4.01976 3.00265
LeftArm  140.133 -65.3769 164.464
LeftForeArm  -25.7053 -24.7707 -6.48455
LeftHand  0.692696 0.290852 -15.8576
RightShoulder  -1.34571 -10.9385 10.6659
RightArm  -52.3469 4.6486 -0.902771
RightForeArm  -39.016 57.2001 20.3494
RightHand  0.406502 -3.49012 26.6187
LeftUpLeg  -7.45699 6.54437 -1.93947
LeftLeg  9.64051 2.03656 -4.61608
LeftFoot  -10.4758 0.256847 -25.3879
LeftToes  -3.90176e-010 -2.48536e-010 1.05482e-011
1791
root  31.6698 40.7012 0.937036 -177.139 16.9243 176.524
RightUpLeg  -27.3216 -12.9157 -6.24597
RightLeg  47.0931 2.42594 2.47523
RightFoot  17.4551 -3.96776 15.8458
RightToes  5.82063e-011 0 -3.6325e-017
Spine  2.61277 -7.31819 -20.1047
Spine1  22.5431 -15.9728 18.4779
HEad  -41.92 57.419 -47.6385
LeftShoulder1  -0.0528152 4.36552 2.66281
LeftArm  139.773 -66.6027 165.634
LeftForeArm  -25.6521 -25.8051 -6.72661
LeftHand  0.658778 0.580393 -16.0475
RightShoulder  -1.38879 -10.6535 12.1183
RightArm  -50.3618 4.04947 -0.294008
RightForeArm  -37.8124 60.0694 22.7995
RightHand  0.300512 -3.88396 25.8168
LeftUpLeg  -8.93504 5.95885 -2.27161
LeftLeg  12.0754 -12.6625 -7.59894
LeftFoot  -10.0447 0.380111 -27.8163
LeftToes  -3.90176e-010 -2.48536e-010 1.05482e-011
1792
root  33.062 40.2085 -0.204898 -179.32 20.3522 177.184
RightUpLeg  -27.8085 -12.3095 -7.40621
RightLeg  48.8086 -2.88856 -3.86926
RightFoot  13.2728 -2.77089 13.0748
RightToes  5.82063e-011 0 -3.6325e-017
Spine  3.5911 -7.01932 -18.6413
Spine1  21.7706 -14.6838 15.9509
HEad  -43.0672 60.7538 -48.4551
LeftShoulder1  -0.056124 4.39751 2.49097
LeftArm  137.719 -68.2041 167.668
LeftForeArm  -25.7186 -26.6528 -6.93332
LeftHand  0.6151 0.975047 -16.4144
RightShoulder  -1.435 -10.7094 12.6527
RightArm  -47.5088 3.01591 -0.460319
RightForeArm  -36.3832 62.9104 25.77
RightHand  0.119112 -4.63149 24.9323
LeftUpLeg  -8.52994 7.10162 -2.47941
LeftLeg  15.6502 -20.8834 -9.29351
LeftFoot  -4.62685 0.768451 -12.5883
LeftToes  -3.90176e-010 -2.48536e-010 1.05482e-011
1793
root  34.3247 39.4685 -1.37084 178.862 24.1971 177.892
RightUpLeg  -27.1903 -11.4885 -9.26037
RightLeg  43.3163 -5.677 -5.99819
RightFoot  8.0226 -1.75356 10.5757
RightToes  5.82063e-011 0 -3.6325e-017
Spine  4.96479 -6.64295 -15.9865
Spine1  19.5739 -13.1986 13.9531
HEad  -44.9217 64.5012 -50.3904
LeftShoulder1  -0.0258249 3.87422 1.70484
LeftArm  135.428 -70.2505 170.752
LeftForeArm  -26.4241 -27.3364 -7.12871
LeftHand  0.588306 1.27671 -16.9284
RightShoulder  -1.21163 -9.67955 12.3388
RightArm  -45.2998 1.39725 -1.47356
RightForeArm  -34.5725 65.2625 28.7847
RightHand  -0.0630346 -5.43829 23.8569
LeftUpLeg  -6.32141 8.77633 -1.91361
LeftLeg  21.4965 -18.295 -7.48343
LeftFoot  -13.2256 -0.0303837 -6.6564
LeftToes  -3.90176e-010 -2.48536e-010 1.05482e-011
1794
root  35.6433 38.7937 -2.49915 176.381 28.4779 176.983
RightUpLeg  -25.151 -9.80813 -12.2438
RightLeg  32.2312 -7.47779 -5.291
RightFoot  3.8098 -1.35357 10.3484
RightToes  5.82063e-011 0 -3.6325e-017
Spine  6.79832 -6.13976 -14.3753
Spine1  16.3879 -11.1524 10.5329
HEad  -47.4559 68.0568 -52.8927
LeftShoulder1  0.0594545 2.72101 0.981026
LeftArm  130.022 -72.5445 176.957
LeftForeArm  -26.7012 -28.0937 -7.3282
LeftHand  0.564052 1.48976 -17.1829
RightShoulder  -0.975912 -8.37896 12.7767
RightArm  -43.5604 0.132187 -2.2603
RightForeArm  -32.8338 66.9953 31.4528
RightHand  -0.206016 -6.12102 23.0906
LeftUpLeg  -2.74184 6.73996 -1.74195
LeftLeg  24.7522 -12.2337 -5.75749
LeftFoot  -19.7757 -0.354812 -6.41363
LeftToes  -3.90176e-010 -2.48536e-010 1.05482e-011
1795
root  37.027 38.0835 -3.63368 174.95 32.0274 177.088
RightUpLeg  -23.4845 -8.44885 -13.5552
RightLeg  22.5537 -8.68583 -4.15277
RightFoot  1.39894 -1.19935 10.799
RightToes  5.82063e-011 0 -3.6325e-017
Spine  8.24454 -5.93762 -11.6938
Spine1  13.6954 -9.63867 7.66434
HEad  -49.3624 70.7087 -55.033
LeftShoulder1  0.18866 1.20449 0.283043
LeftArm  120.134 -74.7799 -172.859
LeftForeArm  -25.9045 -29.098 -7.55128
LeftHand  0.595234 1.27565 -17.1178
RightShoulder  -0.690272 -6.72224 14.3028
RightArm  -42.0554 -1.16114 -3.45559
RightForeArm  -30.0742 68.3436 33.8191
RightHand  -0.17505 -5.99545 22.4084
LeftUpLeg  -0.197204 4.13629 -1.70427
LeftLeg  28.7723 -5.29294 -2.79086
LeftFoot  -23.8363 -0.296373 -4.01291
LeftToes  -3.90176e-010 -2.48536e-010 1.05482e-011
1796
root  38.5062 37.4169 -4.69561 175.151 34.4437 178.871
RightUpLeg  -22.895 -6.38389 -12.9817
RightLeg  18.7278 -11.3188 -4.45927
RightFoot  1.1864 -1.04341 9.55907
RightToes  5.82063e-011 0 -3.6325e-017
Spine  9.61676 -5.73449 -8.94822
Spine1  11.5725 -8.98682 7.6342
HEad  -48.4188 72.5797 -55.096
LeftShoulder1  0.356568 -0.443848 -0.663247
LeftArm  106.279 -76.1932 -158.693
LeftForeArm  -25.2421 -30.1389 -7.79465
LeftHand  0.620238 1.08985 -17.0117
RightShoulder  -0.390064 -5.17799 16.1554
RightArm  -40.85 -2.54207 -4.8037
RightForeArm  -26.7652 69.6728 36.5138
RightHand  -0.146217 -5.87895 21.4965
LeftUpLeg  0.418972 1.81236 -0.0183775
LeftLeg  35.8016 -1.11647 -0.496286
LeftFoot  -27.4101 -0.862448 -7.26939
LeftToes  -3.90176e-010 -2.48536e-010 1.05482e-011
1797
root  40.0558 36.6166 -5.58343 176.96 35.3551 -178.176
RightUpLeg  -25.2555 -8.70244 -9.76072
RightLeg  24.6929 -8.39424 -4.41835
RightFoot  6.50997 -1.88173 12.2253
RightToes  5.82063e-011 0 -3.6325e-017
Spine  11.2263 -5.94737 -6.06153
Spine1  9.23563 -8.90362 9.04973
HEad  -44.717 74.4142 -51.6013
LeftShoulder1  0.546402 -2.11389 -1.45673
LeftArm  94.8781 -76.8079 -145.108
LeftForeArm  -25.6253 -30.7262 -7.9661
LeftHand  0.665707 0.811774 -17.0717
RightShoulder  -0.164537 -4.12862 18.7208
RightArm  -39.7528 -3.88903 -6.00089
RightForeArm  -22.5543 70.981 39.6005
RightHand  -0.0980649 -5.64748 20.6933
LeftUpLeg  -3.89436 1.85264 4.30301
LeftLeg  49.6493 -0.576865 -0.285282
LeftFoot  -25.5494 -1.77792 -15.4135
LeftToes  -3.90176e-010 -2.48536e-010 1.05482e-011
1798
root  41.5024 35.7042 -6.36094 178.794 35.128 -175.587
RightUpLeg  -29.7194 -14.476 -6.0646
RightLeg  36.647 -2.50634 -2.27632
RightFoot  -0.738453 -0.96087 10.2745
RightToes  5.82063e-011 0 -3.6325e-017
Spine  14.1118 -6.41988 -3.88246
Spine1  5.34662 -9.12482 10.7455
HEad  -41.9196 75.6627 -48.8713
LeftShoulder1  0.763738 -3.55367 -2.70282
LeftArm  86.7988 -76.9614 -134.241
LeftForeArm  -26.1271 -31.0163 -8.06454
LeftHand  0.662946 0.838489 -17.1068
RightShoulder  0.165348 -2.8753 20.9633
RightArm  -39.0167 -5.14991 -7.25541
RightForeArm  -19.9624 71.7564 41.7234
RightHand  -0.11488 -5.74123 20.4728
LeftUpLeg  -12.5508 3.31893 8.68842
LeftLeg  65.8946 0.815809 2.70747
LeftFoot  -10.9555 0.134996 -20.5376
LeftToes  -3.90176e-010 -2.48536e-010 1.05482e-011
1799
root  42.7082 34.9775 -7.10477 179.644 35.1497 -172.402
RightUpLeg  -30.301 -19.0284 -2.84314
RightLeg  44.1252 0.800358 0.499144
RightFoot  -6.68949 -0.403594 8.79676
RightToes  5.82063e-011 0 -3.6325e-017
Spine  16.9813 -6.65518 -1.45802
Spine1  4.39269 -9.4027 13.3286
HEad  -42.1988 76.2144 -48.1314
LeftShoulder1  0.865105 -4.13014 -3.28247
LeftArm  84.0752 -77.3475 -130.549
LeftForeArm  -27.2376 -30.8718 -8.07081
LeftHand  0.634193 1.04169 -17.1834
RightShoulder  0.605703 -1.37332 22.4302
RightArm  -38.8438 -5.64913 -8.07032
RightForeArm  -18.8954 72.0069 42.448
RightHand  -0.124804 -5.81057 19.8358
LeftUpLeg  -20.0161 5.5108 12.4161
LeftLeg  77.0059 0.598 4.4125
LeftFoot  -0.514853 0.641111 -6.72935
LeftToes  -3.90176e-010 -2.48536e-010 1.05482e-011
1800
root  44.0956 34.6658 -7.95916 179.128 36.1378 -172.566
RightUpLeg  -29.8043 -19.2024 -2.76345
RightLeg  49.3558 1.44613 1.42694
RightFoot  -11.6862 -0.0551283 8.07715
RightToes  5.82063e-011 0 -3.6325e-017
Spine  18.0633 -5.66945 -2.39636
Spine1  4.00348 -8.80436 13.9237
HEad  -41.0404 76.4024 -46.3971
LeftShoulder1  0.923204 -4.68352 -3.21964
LeftArm  80.304 -77.0706 -127.394
LeftForeArm  -26.5641 -30.8654 -8.04185
LeftHand  0.617429 1.0737 -16.8702
RightShoulder  0.826699 -0.76373 24.2122
RightArm  -38.9568 -5.64933 -8.24434
RightForeArm  -18.0816 72.1663 42.9128
RightHand  -0.107039 -5.7201 19.4944
LeftUpLeg  -26.3979 8.73379 12.2405
LeftLeg  82.2359 0.101226 3.5591
LeftFoot  -3.97937 0.390958 -5.70385
LeftToes  -3.90176e-010 -2.48536e-010 1.05482e-011
1801
root  45.3526 34.5439 -8.88817 178.65 37.4013 -173.428
RightUpLeg  -28.9454 -17.2793 -3.3412
RightLeg  52.8122 0.935593 0.909261
RightFoot  -15.4562 0.185059 8.06212
RightToes  5.82063e-011 0 -3.6325e-017
Spine  18.0585 -4.82624 -2.79577
Spine1  4.08521 -7.96245 12.5194
HEad  -40.4367 76.0674 -45.7048
LeftShoulder1  0.971424 -4.99134 -3.40016
LeftArm  75.7966 -76.6567 -122.673
LeftForeArm  -25.83 -31.2981 -8.12838
LeftHand  0.626962 0.935644 -16.5686
RightShoulder  1.12795 -0.013181 26.4118
RightArm  -38.7151 -6.02703 -7.96704
RightForeArm  -17.2325 72.2421 43.0953
RightHand  -0.0304996 -5.29076 19.2887
LeftUpLeg  -32.5027 12.2051 9.84483
LeftLeg  81.699 0.0352527 2.67148
LeftFoot  -5.97096 0.329775 -6.26501
LeftToes  -3.90176e-010 -2.48536e-010 1.05482e-011
1802
root  46.4914 34.7121 -9.84226 177.962 37.9591 -174.345
RightUpLeg  -26.4151 -15.6742 -4.19532
RightLeg  53.6691 0.410716 0.176119
RightFoot  -18.3481 0.391538 8.41769
RightToes  5.82063e-011 0 -3.6325e-017
Spine  17.8792 -4.2957 -3.06113
Spine1  4.93903 -7.49896 10.9327
HEad  -42.323 75.5618 -47.549
LeftShoulder1  0.977518 -4.67371 -3.98653
LeftArm  74.7901 -76.124 -120.307
LeftForeArm  -25.9292 -31.4865 -8.18367
LeftHand  0.659099 0.726045 -16.5808
RightShoulder  1.31149 0.324937 28.4102
RightArm  -39.0423 -6.14347 -6.96536
RightForeArm  -14.949 72.554 43.981
RightHand  0.0723165 -4.70111 19.0795
LeftUpLeg  -37.0972 14.2002 6.41085
LeftLeg  75.4609 0.253932 2.33507
LeftFoot  -7.86964 0.284015 -7.80924
LeftToes  -3.90176e-010 -2.48536e-010 1.05482e-011
1803
root  47.52 35.0651 -10.7221 177.281 37.9642 -175.836
RightUpLeg  -23.8954 -14.6688 -5.32776
RightLeg  53.2598 -0.321908 -0.87603
RightFoot  -20.0077 0.536347 8.85682
RightToes  5.82063e-011 0 -3.6325e-017
Spine  17.9628 -3.65943 -4.77629
Spine1  4.70718 -7.23465 10.3347
HEad  -40.6961 75.8148 -46.9543
LeftShoulder1  1.0636 -4.76322 -5.01652
LeftArm  71.2251 -75.3047 -114.915
LeftForeArm  -26.3342 -31.8077 -8.28825
LeftHand  0.701574 0.44645 -16.5866
RightShoulder  1.48089 0.612014 30.1705
RightArm  -39.2689 -6.61479 -5.98779
RightForeArm  -12.595 72.8986 45.0285
RightHand  0.149281 -4.24333 18.7826
LeftUpLeg  -39.8758 15.2305 2.20064
LeftLeg  63.8581 0.681011 2.16455
LeftFoot  -8.76573 0.248362 -8.70341
LeftToes  -3.90176e-010 -2.48536e-010 1.05482e-011
1804
root  48.4117 35.4924 -11.5352 176.864 38.1341 -177.389
RightUpLeg  -22.1254 -13.9082 -6.52368
RightLeg  52.764 -0.743521 -1.44812
RightFoot  -20.1352 0.663688 10.3868
RightToes  5.82063e-011 0 -3.6325e-017
Spine  17.9567 -3.06746 -6.68003
Spine1  4.5258 -6.78135 9.45485
HEad  -40.5497 75.955 -47.4805
LeftShoulder1  1.11714 -4.68029 -5.90073
LeftArm  68.7902 -74.6735 -110.573
LeftForeArm  -26.4405 -32.0711 -8.36523
LeftHand  0.751375 0.168743 -16.759
RightShoulder  1.54408 0.592879 31.9101
RightArm  -39.2391 -7.23636 -5.18468
RightForeArm  -9.16363 73.6368 47.7137
RightHand  0.166794 -4.11795 18.4024
LeftUpLeg  -39.8521 15.8961 -1.639
LeftLeg  47.6988 -0.0233003 0.400886
LeftFoot  -7.14725 0.436832 -10.7391
LeftToes  -3.90176e-010 -2.48536e-010 1.05482e-011
